<svg xmlns="http://www.w3.org/2000/svg" width="13" height="14" viewBox="0 0 13 14" fill="none">
<path d="M7.66665 0.113953C7.69137 0.118992 7.71609 0.12403 7.74156 0.129221C8.95997 0.38409 10.0807 0.931773 10.9761 1.80283C11.0284 1.85178 11.0849 1.89516 11.1409 1.93985C11.1688 1.96913 11.1958 1.99926 11.2218 2.0302C11.2716 2.08878 11.3217 2.14611 11.3746 2.20187C12.2707 3.14736 12.8025 4.43795 12.9668 5.71845C12.969 5.73537 12.9713 5.75229 12.9735 5.76972C12.9912 5.91469 12.9966 6.0577 12.9973 6.20365C12.9975 6.22765 12.9977 6.25165 12.9979 6.27638C13.0037 7.27849 13.0037 7.27849 12.9161 7.69651C12.9085 7.73359 12.9085 7.73359 12.9008 7.77142C12.651 8.96583 12.1188 10.0589 11.2806 10.9497C11.2356 10.9985 11.1931 11.047 11.1512 11.0983C11.1023 11.1565 11.0562 11.2047 10.9983 11.2532C10.9402 11.3024 10.8835 11.3519 10.8283 11.4044C9.88281 12.3006 8.59215 12.8323 7.31161 12.9967C7.2947 12.9989 7.27779 13.0011 7.26037 13.0034C7.1151 13.0211 6.97178 13.0265 6.82552 13.0272C6.80127 13.0273 6.77702 13.0275 6.75204 13.0276C6.70083 13.0279 6.64962 13.028 6.5984 13.0281C6.52206 13.0284 6.44573 13.0292 6.36939 13.03C6.02662 13.0318 5.69686 13.0027 5.35891 12.946C5.3301 12.9412 5.30128 12.9364 5.27159 12.9315C5.20574 12.9197 5.14051 12.9065 5.0752 12.8921C5.03998 12.8843 5.03998 12.8843 5.00405 12.8763C3.90852 12.6216 2.89853 12.0804 2.08038 11.3105C2.03164 11.2655 1.98311 11.223 1.93189 11.1812C1.87317 11.1318 1.82433 11.085 1.77527 11.0266C1.71042 10.9502 1.6438 10.8764 1.57556 10.8031C0.829838 9.97266 0.347549 8.92924 0.115796 7.84391C0.110753 7.82046 0.105711 7.797 0.100515 7.77284C0.0170344 7.36184 -0.00150075 6.95777 9.19104e-05 6.53947C0.000146564 6.51365 0.000201218 6.48782 0.000257529 6.46122C0.00151779 6.09041 0.00926927 5.7278 0.0840959 5.36341C0.0891343 5.33773 0.0941727 5.31206 0.0993638 5.2856C0.342217 4.07115 0.907591 2.9435 1.77297 2.05398C1.82192 2.00164 1.86531 1.94511 1.90999 1.88913C1.93928 1.86129 1.9694 1.83429 2.00034 1.8083C2.08288 1.73805 2.16224 1.66535 2.24126 1.59116C3.08923 0.819315 4.21584 0.322741 5.33356 0.113953C5.35397 0.109838 5.37439 0.105724 5.39542 0.101484C6.10527 -0.0373061 6.95883 -0.0342977 7.66665 0.113953ZM2.51863 2.62456C2.50395 2.63914 2.48927 2.65372 2.47415 2.66873C2.15122 2.99326 1.88249 3.36817 1.6564 3.76575C1.64166 3.79165 1.64166 3.79165 1.62662 3.81807C0.907641 5.09472 0.730936 6.61514 1.12384 8.02618C1.33415 8.76283 1.67527 9.4381 2.16359 10.0296C2.18143 10.0513 2.18143 10.0513 2.19964 10.0734C2.44993 10.3761 2.7159 10.649 3.02582 10.8918C3.05139 10.9125 3.07695 10.9331 3.10329 10.9543C3.3033 11.1142 3.51272 11.2485 3.73589 11.3737C3.75413 11.384 3.77238 11.3943 3.79117 11.405C5.02943 12.101 6.54469 12.3102 7.92025 11.9316C8.90429 11.6483 9.71334 11.1598 10.4562 10.4607C10.4729 10.4451 10.4896 10.4295 10.5068 10.4134C10.6374 10.2873 10.7497 10.1466 10.862 10.0042C10.8899 9.96893 10.8899 9.96893 10.9183 9.93291C11.817 8.76642 12.2165 7.29715 12.0389 5.83707C11.843 4.36837 11.0876 3.02874 9.91732 2.11578C9.02337 1.43781 7.90997 0.981914 6.77906 0.950824C6.76022 0.95017 6.74139 0.949516 6.72199 0.948842C5.13608 0.89935 3.63898 1.50918 2.51863 2.62456Z" fill="black"/>
<path d="M7.00932 5.54999C7.10195 5.62349 7.1462 5.68136 7.18456 5.79448C7.19109 5.86226 7.19109 5.86226 7.19134 5.93658C7.19156 5.96487 7.19178 5.99317 7.192 6.02232C7.19198 6.05313 7.19195 6.08393 7.19193 6.11567C7.1921 6.1483 7.19227 6.18093 7.19245 6.21455C7.19289 6.30389 7.19301 6.39322 7.19305 6.48256C7.19308 6.53843 7.19319 6.5943 7.19333 6.65016C7.19379 6.84522 7.194 7.04027 7.19396 7.23532C7.19393 7.4169 7.19447 7.59848 7.19527 7.78006C7.19593 7.93616 7.1962 8.09226 7.19617 8.24837C7.19616 8.34151 7.1963 8.43464 7.19684 8.52779C7.19742 8.63172 7.19719 8.73563 7.19688 8.83956C7.19717 8.87026 7.19745 8.90096 7.19775 8.93259C7.19649 9.10109 7.18494 9.20835 7.08312 9.34483C7.03508 9.38812 7.03508 9.38812 6.98644 9.41616C6.97059 9.42574 6.95473 9.43532 6.9384 9.44518C6.67068 9.56696 6.35624 9.55888 6.08211 9.46292C5.95918 9.38236 5.85698 9.29202 5.82401 9.14401C5.81778 9.0543 5.81709 8.96608 5.81833 8.87616C5.81818 8.8419 5.81794 8.80764 5.81764 8.77338C5.81705 8.68084 5.81757 8.58833 5.81832 8.4958C5.81896 8.39873 5.81869 8.30167 5.81856 8.2046C5.81846 8.04169 5.81909 7.87879 5.82014 7.71588C5.82135 7.52774 5.82149 7.33962 5.82103 7.15148C5.82061 6.97014 5.82091 6.78881 5.82156 6.60748C5.82182 6.53045 5.82184 6.45343 5.82167 6.3764C5.8215 6.28568 5.82196 6.19498 5.82291 6.10426C5.82328 6.05523 5.82302 6.0062 5.82275 5.95717C5.82628 5.71682 5.82628 5.71682 5.9013 5.62362C5.96175 5.57106 6.00897 5.53682 6.083 5.50759C6.10186 5.49985 6.12073 5.4921 6.14016 5.48412C6.4022 5.39271 6.77187 5.39554 7.00932 5.54999Z" fill="black"/>
<path d="M6.93133 3.53752C7.09128 3.66111 7.18965 3.79231 7.21722 3.99399C7.22584 4.16377 7.17174 4.30837 7.06922 4.44254C6.94308 4.5807 6.75639 4.66464 6.57144 4.68475C6.34987 4.69168 6.15665 4.63582 5.98193 4.49643C5.8505 4.36959 5.78701 4.22847 5.77588 4.0463C5.7839 3.88 5.84615 3.73602 5.9634 3.61726C6.0137 3.57708 6.06388 3.54396 6.11982 3.51216C6.13489 3.50356 6.14996 3.49496 6.16549 3.4861C6.40084 3.37674 6.71287 3.40273 6.93133 3.53752Z" fill="black"/>
</svg>